# xmcd CD database file
#
# Track frame offsets:
#	150
#	18808
#	32710
#	51338
#	66528
#	77868
#	92308
#	106253
#	121853
#	132995
#	148103
#	162135
#
# Disc length: 2304 seconds
#
# Revision: 22
# Processed by: cddbd v1.5.2PL0 Copyright (c) Steve Scherf et al.
# Submitted via: CDex 2.23
#
DISCID=9b08fe0c
DTITLE=America - C-037 America's greatest Hits History
DYEAR=1975
DGENRE=Country
TTITLE0=A Horse With No Name
TTITLE1=I Need You
TTITLE2=Sandman
TTITLE3=Ventura Highway
TTITLE4=Don't Cross The River
TTITLE5=Only In Your Heart
TTITLE6=Muskrat Love
TTITLE7=Tin Man
TTITLE8=Lonely People
TTITLE9=Sister Golden Hair
TTITLE10=Daisy Jane
TTITLE11=Woman Tonight
EXTD=Warner Bros. Records Inc.\n28942\nBar Code 7599 27333 2\nCompilation 1971-1975 \n1972, 1973, 1974, 1975 Warner Bros. Records Inc.\n1986 WEA International Inc.\nRelease Year: 1986 YEAR: 1975
EXTT0=
EXTT1=
EXTT2=
EXTT3=
EXTT4=
EXTT5=
EXTT6=
EXTT7=
EXTT8=
EXTT9=
EXTT10=
EXTT11=
PLAYORDER=
